<svg id="Ebene_1" data-name="Ebene 1" xmlns="http://www.w3.org/2000/svg" viewBox="0 0 179 179"><title>Instagram Icon</title><defs><style>.cls-1{fill:#fff;fill-rule:evenodd}</style></defs><path class="cls-1" d="M103.12 60.5A42 42 0 0 0 61 102.62v94.76a42 42 0 0 0 42.12 42.12h94.76A42 42 0 0 0 240 197.38v-94.76a42 42 0 0 0-42.12-42.12zm100 26.32a10.53 10.53 0 1 1-10.53 10.53 10.52 10.52 0 0 1 10.56-10.53zm-52.62 18.43A44.75 44.75 0 1 1 105.75 150a44.83 44.83 0 0 1 44.75-44.75zm0 10.53A34.22 34.22 0 1 0 184.72 150a34.14 34.14 0 0 0-34.22-34.22z" transform="translate(-61 -60.5)"/></svg>