<svg xmlns="http://www.w3.org/2000/svg" width="22.84" height="24.5" viewBox="0 0 22.84 24.5"><defs><style>.cls-1{fill:#2a2a2a;fill-rule:evenodd}</style></defs><path id="Form_108" data-name="Form 108" class="cls-1" d="M1210.78 47c-6.3 0-11.41-5.5-11.41-12.269s5.14-12.226 11.48-12.222c6.27 0 11.38 5.517 11.38 12.271S1217.1 47 1210.78 47zm-2.58-13.766h.66a.263.263 0 0 1 .3.309v6.012a.268.268 0 0 1-.32.316c-.21-.008-.42 0-.63 0v.934h5.24v-.933h-.56c-.42 0-.45-.03-.45-.477v-7.067h-4.24v.909zm4.41-3.5a1.873 1.873 0 0 0-1.83-1.928 1.942 1.942 0 1 0 1.83 1.934z" transform="translate(-1199.38 -22.5)"/></svg>