<svg xmlns="http://www.w3.org/2000/svg" width="16" height="24.5" viewBox="0 0 16 24.5"><defs><style>.cls-1{fill:#2a2a2a;fill-rule:evenodd}</style></defs><path id="Form_133" data-name="Form 133" class="cls-1" d="M1122.6 33.832a3.54 3.54 0 1 1 3.42-3.538 3.48 3.48 0 0 1-3.42 3.538zm0-11.832a8.159 8.159 0 0 0-8.01 8.294c0 .1 0 .2.01.3a8.533 8.533 0 0 0 .46 2.491c1.7 5.818 7.54 13.406 7.54 13.406s5.83-7.588 7.54-13.4a8.534 8.534 0 0 0 .46-2.492c.01-.1.01-.2.01-.3A8.159 8.159 0 0 0 1122.6 22z" transform="translate(-1114.59 -22)"/></svg>